HIERARCHY
ROOT Hips
{
	OFFSET 0.000000 0.000000 0.000000
	CHANNELS 6 Xposition Yposition Zposition Xrotation Yrotation Zrotation
	JOINT LeftUpLeg_virtual
	{
		OFFSET 0.000000 0.000000 0.000000
		CHANNELS 3 Xrotation Yrotation Zrotation
		JOINT LeftUpLeg
		{
			OFFSET 13.026900 -6.336304 -1.092800
			CHANNELS 3 Xrotation Yrotation Zrotation
			JOINT LeftLeg
			{
				OFFSET 0.524474 -46.096886 9.782700
				CHANNELS 3 Xrotation Yrotation Zrotation
				JOINT LeftFoot
				{
					OFFSET -0.524474 -53.427422 -12.948200
					CHANNELS 3 Xrotation Yrotation Zrotation
					JOINT LeftToeBase
					{
						OFFSET 0.192200 -14.009700 16.364100
						CHANNELS 3 Xrotation Yrotation Zrotation
						JOINT LeftToe_End
						{
							OFFSET -1.784700 -0.561700 9.474800
							CHANNELS 3 Xrotation Yrotation Zrotation
							End Site
							{
								OFFSET 0 0 0
							}
						}
					}
				}
			}
		}
	}
	JOINT RightUpLeg_virtual
	{
		OFFSET 0.000000 0.000000 0.000000
		CHANNELS 3 Xrotation Yrotation Zrotation
		JOINT RightUpLeg
		{
			OFFSET -12.883000 -6.336304 -1.092800
			CHANNELS 3 Xrotation Yrotation Zrotation
			JOINT RightLeg
			{
				OFFSET -0.524587 -46.096825 9.782800
				CHANNELS 3 Xrotation Yrotation Zrotation
				JOINT RightFoot
				{
					OFFSET 0.524587 -53.427383 -12.948300
					CHANNELS 3 Xrotation Yrotation Zrotation
					JOINT RightToeBase
					{
						OFFSET -0.192200 -14.009700 16.364100
						CHANNELS 3 Xrotation Yrotation Zrotation
						JOINT RightToe_End
						{
							OFFSET 1.784700 -0.561700 9.474800
							CHANNELS 3 Xrotation Yrotation Zrotation
							End Site
							{
								OFFSET 0 0 0
							}
						}
					}
				}
			}
		}
	}
	JOINT Spine_virtual
	{
		OFFSET 0.000000 0.000000 0.000000
		CHANNELS 3 Xrotation Yrotation Zrotation
		JOINT Spine
		{
			OFFSET 0.072000 7.257294 -0.789700
			CHANNELS 3 Xrotation Yrotation Zrotation
			JOINT Spine1
			{
				OFFSET 0.000000 12.508769 -0.658067
				CHANNELS 3 Xrotation Yrotation Zrotation
				JOINT Spine1_split
				{
					OFFSET 0.000000 12.508769 -0.658067
					CHANNELS 3 Xrotation Yrotation Zrotation
					JOINT Spine2
					{
						OFFSET 0.000000 12.508769 -0.658067
						CHANNELS 3 Xrotation Yrotation Zrotation
						JOINT Neck_virtual
						{
							OFFSET 0.000000 0.000000 0.000000
							CHANNELS 3 Xrotation Yrotation Zrotation
							JOINT Neck
							{
								OFFSET 0.000000 14.033295 7.520400
								CHANNELS 3 Xrotation Yrotation Zrotation
								JOINT Head
								{
									OFFSET 0.000000 8.198502 5.703100
									CHANNELS 3 Xrotation Yrotation Zrotation
									JOINT HeadTop_End
									{
										OFFSET 0.000000 17.760803 13.332701
										CHANNELS 3 Xrotation Yrotation Zrotation
										End Site
										{
											OFFSET 0 0 0
										}
									}
								}
							}
						}
						JOINT LeftShoulder_virtual
						{
							OFFSET 0.000000 0.000000 0.000000
							CHANNELS 3 Xrotation Yrotation Zrotation
							JOINT LeftShoulder
							{
								OFFSET 6.292450 5.785301 -0.669000
								CHANNELS 3 Xrotation Yrotation Zrotation
								JOINT LeftShoulder_split
								{
									OFFSET 6.292450 5.785301 -0.669000
									CHANNELS 3 Xrotation Yrotation Zrotation
									JOINT LeftArm
									{
										OFFSET 13.907140 -6.093903 1.965100
										CHANNELS 3 Xrotation Yrotation Zrotation
										JOINT LeftForeArm
										{
											OFFSET 34.140198 0.000000 0.000000
											CHANNELS 3 Xrotation Yrotation Zrotation
											JOINT LeftHand
											{
												OFFSET 40.960209 0.000000 0.000000
												CHANNELS 3 Xrotation Yrotation Zrotation
												End Site
												{
													OFFSET 0 0 0
												}
											}
										}
									}
								}
							}
						}
						JOINT RightShoulder_virtual
						{
							OFFSET 0.000000 0.000000 0.000000
							CHANNELS 3 Xrotation Yrotation Zrotation
							JOINT RightShoulder
							{
								OFFSET -6.292450 5.785301 -0.669000
								CHANNELS 3 Xrotation Yrotation Zrotation
								JOINT RightShoulder_split
								{
									OFFSET -6.292450 5.785301 -0.669000
									CHANNELS 3 Xrotation Yrotation Zrotation
									JOINT RightArm
									{
										OFFSET -13.907140 -6.093903 1.965100
										CHANNELS 3 Xrotation Yrotation Zrotation
										JOINT RightForeArm
										{
											OFFSET -34.140198 0.000000 0.000000
											CHANNELS 3 Xrotation Yrotation Zrotation
											JOINT RightHand
											{
												OFFSET -40.960209 0.000000 0.000000
												CHANNELS 3 Xrotation Yrotation Zrotation
												End Site
												{
													OFFSET 0 0 0
												}
											}
										}
									}
								}
							}
						}
					}
				}
			}
		}
	}
}
MOTION
Frames: 10
Frame Time: 0.03333333
-8.104029 113.756119 -11.021975 0.000000 0.000000 0.000000 -9.766292 -3.442918 4.279157 -9.921518 7.082502 -0.621217 23.039997 1.521960 -0.706877 -4.767907 4.567203 2.444922 -2.241248 0.000714 0.492868 0.000000 0.000000 0.000000 -9.041467 -3.984728 4.103637 -14.743573 -12.860692 -13.258436 32.996097 0.248344 -1.056637 -8.168549 -15.993885 3.471796 -1.803653 0.289394 -0.152763 0.000000 0.000000 0.000000 -9.763944 -2.053192 4.289791 7.554092 0.662901 -2.966081 13.790388 2.530642 -1.422314 0.442252 -1.780530 0.694678 0.000000 0.000000 0.000000 14.222140 2.646747 -2.242807 30.464467 -0.738403 -4.633915 1.730304 -1.665762 -5.885151 0.000000 0.000000 0.000000 14.668451 3.012130 -2.886781 -4.170197 -23.134617 -26.028234 -3.172186 -1.215309 -4.865351 5.354709 -43.790569 -24.666895 8.824952 -20.157299 -2.085746 0.000000 0.000000 0.000000 14.271921 3.034097 -2.638707 -0.357434 23.783239 24.099008 -0.160773 0.499313 1.064059 -6.859022 21.453621 40.091943 35.400071 41.678812 -16.833184 0.000000 0.000000 0.000000 
-7.513740 114.095291 -10.812231 0.000000 0.000000 0.000000 -10.505157 -3.991020 4.808171 -6.985875 7.967321 -1.274275 20.080213 1.380868 -0.783675 -3.918945 4.275345 2.252399 -1.359575 0.074201 0.364260 0.000000 0.000000 0.000000 -9.917339 -3.830711 4.547307 -13.052742 -13.528615 -14.322120 31.673886 0.374896 -1.071786 -8.283813 -14.919630 3.774100 -1.530229 0.208179 -0.029308 0.000000 0.000000 0.000000 -11.074960 -1.794000 4.668329 7.709484 0.620783 -3.742464 12.254984 2.570092 -1.725441 0.865917 -1.727403 0.533743 0.000000 0.000000 0.000000 12.622407 2.724869 -2.432690 28.727041 -0.079581 -4.562455 1.365370 -0.244606 -6.067319 0.000000 0.000000 0.000000 13.224327 3.084742 -2.974171 -2.678571 -22.255996 -22.587205 -3.462485 -1.154126 -4.550260 4.993180 -40.945259 -28.007254 7.763249 -19.386389 -2.184849 0.000000 0.000000 0.000000 12.872303 3.079102 -2.784286 0.347484 22.171685 22.857086 0.201498 0.053747 1.506983 -2.376917 23.846499 40.858506 33.474368 43.859209 -15.669765 0.000000 0.000000 0.000000 
-7.092258 114.242294 -10.441942 0.000000 0.000000 0.000000 -10.668773 -4.404795 5.038768 -5.006039 8.559214 -1.691999 17.861474 1.334158 -0.828617 -3.344916 3.864274 2.282168 -0.765245 0.080671 0.277856 0.000000 0.000000 0.000000 -10.287016 -3.538597 4.760612 -11.925130 -13.811292 -15.093402 30.886389 0.527289 -1.047790 -8.557653 -13.907860 4.267311 -1.737484 0.148051 -0.004587 0.000000 0.000000 0.000000 -11.608897 -1.435985 4.807052 7.633880 0.547211 -4.414608 10.764937 2.572768 -2.010421 0.954916 -1.775113 0.249249 0.000000 0.000000 0.000000 11.149600 2.742608 -2.632379 26.945460 0.429751 -4.042441 0.645889 0.769095 -5.863809 0.000000 0.000000 0.000000 11.819116 3.097221 -3.053927 -1.033348 -21.361803 -18.527098 -3.924557 -1.016109 -4.248097 4.470374 -36.401316 -31.575500 8.409951 -20.131848 -1.278857 0.000000 0.000000 0.000000 11.450525 3.061187 -2.932283 1.194581 20.403080 20.614300 0.460564 -0.335417 1.976226 1.142412 24.923422 41.974429 32.527386 45.381843 -15.408451 0.000000 0.000000 0.000000 
-6.891696 114.239395 -10.088533 0.000000 0.000000 0.000000 -10.471392 -4.649042 4.975281 -4.070208 8.964361 -1.822371 16.574962 1.344705 -0.874900 -2.889381 3.378811 2.546509 -0.591531 0.022546 0.285621 0.000000 0.000000 0.000000 -10.245034 -3.329284 4.790904 -11.433633 -13.707405 -15.672687 30.559257 0.719011 -0.969382 -8.599233 -13.049663 4.941946 -2.353737 0.103585 -0.066702 0.000000 0.000000 0.000000 -11.567227 -1.232289 4.700549 7.270045 0.513649 -4.865081 9.384609 2.540432 -2.239970 1.160979 -1.941626 0.124367 0.000000 0.000000 0.000000 9.842518 2.704935 -2.801316 25.030847 0.788846 -3.263768 -0.531899 1.429822 -5.385860 0.000000 0.000000 0.000000 10.561713 3.036216 -3.148358 0.565493 -20.282196 -14.470983 -4.485739 -1.052416 -4.256212 4.278678 -30.632835 -35.090008 10.657545 -21.230127 0.299854 0.000000 0.000000 0.000000 10.114752 2.993896 -3.076256 2.061384 18.557120 17.719778 0.249531 -0.443995 2.546154 2.971624 24.326081 43.669436 32.767443 45.937052 -16.102372 0.000000 0.000000 0.000000 
-6.811806 114.158264 -9.837431 0.000000 0.000000 0.000000 -10.169142 -4.780028 4.734856 -3.882204 9.262934 -1.805087 16.010013 1.445182 -0.936987 -2.628968 3.046931 3.035056 -0.595600 -0.056094 0.329164 0.000000 0.000000 0.000000 -9.967090 -3.387542 4.704582 -11.410850 -13.423882 -16.095553 30.497416 0.841834 -0.854466 -8.377543 -12.536686 5.495331 -2.918489 0.064890 -0.146063 0.000000 0.000000 0.000000 -11.167075 -1.361360 4.434908 6.717643 0.533789 -5.080285 8.141654 2.489519 -2.376452 1.207567 -1.855266 0.385880 0.000000 0.000000 0.000000 8.756225 2.625573 -2.899078 22.989850 1.007863 -2.480611 -1.986231 1.761560 -4.811415 0.000000 0.000000 0.000000 9.458161 2.929323 -3.241994 1.903457 -18.972585 -11.098972 -5.182126 -1.222533 -4.244639 3.909861 -24.245804 -38.648472 14.155991 -21.132112 2.061910 0.000000 0.000000 0.000000 8.931033 2.901707 -3.164929 2.843837 16.786500 14.750856 -0.229156 -0.276286 3.248223 3.005463 22.105511 46.010886 33.955568 45.386675 -17.329775 0.000000 0.000000 0.000000 
-6.716411 114.068924 -9.670946 0.000000 0.000000 0.000000 -9.864747 -4.753896 4.444653 -4.142953 9.485581 -1.784494 15.767799 1.627475 -0.996206 -2.615281 2.920784 3.615582 -0.467600 -0.105091 0.337540 0.000000 0.000000 0.000000 -9.608438 -3.661818 4.572808 -11.560284 -13.158090 -16.360113 30.414037 0.806193 -0.686672 -8.218585 -12.425757 5.603700 -3.053524 0.035641 -0.187820 0.000000 0.000000 0.000000 -10.690514 -1.790892 4.180767 6.026309 0.574542 -5.100048 7.054102 2.421591 -2.409461 1.264526 -1.869655 0.612138 0.000000 0.000000 0.000000 7.822427 2.519405 -2.877780 20.880583 1.092235 -1.899134 -3.276046 1.890140 -4.344890 0.000000 0.000000 0.000000 8.505655 2.795948 -3.262105 2.897383 -17.539876 -8.568154 -5.732475 -1.565492 -4.273520 2.449646 -17.572910 -42.435740 17.963481 -19.462021 3.316610 0.000000 0.000000 0.000000 7.939711 2.792931 -3.148245 3.477012 15.257476 12.220602 -0.876237 -0.058951 4.165539 1.656785 18.555886 48.943804 35.628247 43.826906 -18.490446 0.000000 0.000000 0.000000 
-6.600049 114.051323 -9.574705 0.000000 0.000000 0.000000 -9.630329 -4.720703 4.226905 -4.287692 9.671684 -1.820479 15.487005 1.779927 -1.023830 -2.811982 2.874626 4.023113 -0.339122 -0.109658 0.315920 0.000000 0.000000 0.000000 -9.312637 -3.982901 4.497984 -11.577576 -13.078281 -16.480174 30.169577 0.615398 -0.491491 -8.295984 -12.623606 5.211991 -2.777189 0.027299 -0.171600 0.000000 0.000000 0.000000 -10.310994 -2.402778 4.016357 5.372683 0.593774 -5.040587 6.135517 2.330865 -2.368620 1.516151 -1.790949 0.847217 0.000000 0.000000 0.000000 6.982431 2.405028 -2.736795 18.783618 1.080707 -1.609124 -4.059672 1.928836 -4.103857 0.000000 0.000000 0.000000 7.630497 2.654972 -3.183226 3.497684 -16.074439 -6.949267 -6.105235 -2.034457 -3.941409 -0.026729 -10.612836 -45.997130 21.496788 -16.912366 3.630012 0.000000 0.000000 0.000000 7.145887 2.673754 -3.024763 3.969110 14.081247 10.487659 -1.348756 0.415649 4.653417 -0.225359 14.340600 52.063663 37.363891 41.566202 -19.082802 0.000000 0.000000 0.000000 
-6.400237 114.082008 -9.406355 0.000000 0.000000 0.000000 -9.492502 -4.828121 4.140234 -4.057517 9.806134 -1.906842 15.142845 1.839926 -0.999130 -3.063363 2.801655 4.185227 -0.336115 -0.076541 0.257227 0.000000 0.000000 0.000000 -9.143898 -4.264493 4.489807 -11.377283 -13.194297 -16.498472 29.845270 0.352149 -0.286842 -8.510090 -13.004261 4.607213 -2.449376 0.035094 -0.113027 0.000000 0.000000 0.000000 -10.103918 -3.001827 4.005807 4.856147 0.540109 -4.995216 5.378508 2.231715 -2.308810 1.467631 -1.348047 0.908735 0.000000 0.000000 0.000000 6.228882 2.295528 -2.518738 16.761843 0.971211 -1.597165 -4.081429 1.808521 -4.072675 0.000000 0.000000 0.000000 6.817289 2.531614 -3.017508 3.792445 -14.752543 -6.041189 -6.055074 -2.822596 -3.293899 -3.278812 -3.532946 -48.940385 24.401322 -14.369258 3.014012 0.000000 0.000000 0.000000 6.513546 2.551303 -2.825522 4.297174 13.248401 9.568419 -1.615084 0.907558 4.485824 -1.883973 9.918754 54.941915 38.776596 38.935746 -18.862295 0.000000 0.000000 0.000000 
-6.201780 114.130302 -9.119352 0.000000 0.000000 0.000000 -9.430324 -5.141176 4.197774 -3.435578 9.963489 -1.987823 14.938168 1.786871 -0.907533 -3.261365 2.532145 4.211649 -0.429021 -0.034087 0.179985 0.000000 0.000000 0.000000 -9.134721 -4.478415 4.567310 -11.088479 -13.379388 -16.506878 29.501090 0.208026 -0.096614 -8.644872 -13.271045 4.261714 -2.403811 0.056402 -0.056640 0.000000 0.000000 0.000000 -10.063983 -3.391448 4.159099 4.497713 0.424947 -4.981344 4.777364 2.121696 -2.268531 1.426808 -0.935986 0.657414 0.000000 0.000000 0.000000 5.533284 2.186041 -2.290344 14.813058 0.789207 -1.741663 -3.405556 1.441057 -4.096245 0.000000 0.000000 0.000000 6.101545 2.423115 -2.809551 3.872741 -13.731626 -5.443284 -5.647217 -3.584566 -2.764361 -6.296680 3.066941 -51.102478 26.537208 -12.717628 1.815913 0.000000 0.000000 0.000000 6.006354 2.431504 -2.599865 4.423591 12.706908 9.218707 -1.761356 1.022269 3.523413 -2.924086 5.842673 57.342628 39.659323 36.442235 -17.983468 0.000000 0.000000 0.000000 
-6.099490 114.136681 -8.677500 0.000000 0.000000 0.000000 -9.471421 -5.720136 4.352093 -2.507944 10.219202 -2.022113 14.939485 1.650040 -0.762922 -3.421837 2.077132 4.207159 -0.525016 0.002222 0.092204 0.000000 0.000000 0.000000 -9.234986 -4.709002 4.674471 -10.836649 -13.491898 -16.555489 29.264714 0.264441 0.027178 -8.620996 -13.318355 4.355936 -2.676719 0.076756 -0.007807 0.000000 0.000000 0.000000 -10.152724 -3.546515 4.381399 4.349563 0.286426 -4.976551 4.310409 2.013650 -2.274331 1.165936 -0.417216 0.371209 0.000000 0.000000 0.000000 4.977020 2.081978 -2.121733 12.898054 0.561893 -1.902096 -2.385509 0.757383 -3.988110 0.000000 0.000000 0.000000 5.497782 2.334779 -2.640554 3.831454 -13.135661 -4.985236 -4.899497 -4.231378 -2.354470 -7.926435 8.425662 -52.488225 28.085719 -12.256249 0.451823 0.000000 0.000000 0.000000 5.595276 2.322540 -2.403087 4.363521 12.311973 9.134053 -1.869369 1.104347 2.204296 -3.152864 2.547935 59.208301 40.035055 34.498807 -16.781811 0.000000 0.000000 0.000000 
